# xmcd
#
# Track frame offsets: 
#        150
#        17950
#        38128
#        60030
#        79505
#        100348
#        112730
#        133114
#        151909
#        179232
#        194286
#        214663
#        232147
#        260571
#
# Disc length: 3767 seconds
#
# Revision: 3
# Processed by: cddbd v1.5.2PL0 Copyright (c) Steve Scherf et al.
# Submitted via: ExactAudioCopy v1.0b3
#
DISCID=ba0eb50e
DTITLE=Hart, Beth - 37 Days
DYEAR=2007
DGENRE=Blues
TTITLE0=Good As It Gets
TTITLE1=Jealousy
TTITLE2=One Eyed Chicken
TTITLE3=Over You
TTITLE4=Sick
TTITLE5=Face Forward
TTITLE6=Soul Shine
TTITLE7=Forever Young
TTITLE8=Easy
TTITLE9=Heaven Look Down
TTITLE10=Missing You
TTITLE11=Waterfalls
TTITLE12=Crashing Down The End
TTITLE13=At The Bottom
EXTD=
EXTT0=
EXTT1=
EXTT2=
EXTT3=
EXTT4=
EXTT5=
EXTT6=
EXTT7=
EXTT8=
EXTT9=
EXTT10=
EXTT11=
EXTT12=
EXTT13=
PLAYORDER=
